<mxfile host="app.diagrams.net" modified="2023-04-23T20:34:08.917Z" agent="Mozilla/5.0 (Windows NT 10.0; Win64; x64) AppleWebKit/537.36 (KHTML, like Gecko) Chrome/112.0.0.0 Safari/537.36" version="21.2.1" etag="vGu6jf2iHX-I_vKRk8EA" type="github">
  <diagram name="PÃ¡gina-1" id="CGrF62I9529Gx3oGcbWV">
    <mxGraphModel>
      <root>
        <mxCell id="0" />
        <mxCell id="1" parent="0" />
      </root>
    </mxGraphModel>
  </diagram>
</mxfile>
